<svg viewBox="0 0 120 120" xmlns="http://www.w3.org/2000/svg" xmlns:xlink="http://www.w3.org/1999/xlink" width="120.000000" height="120.000000" fill="none">
	<rect id="Frame" width="120.000000" height="120.000000" x="0.000000" y="0.000000" fill="rgb(255,255,255)" fill-opacity="0" />
	<g id="Group">
		<path id="Vector" d="M84.1497 60.1614C86.452 58.499 88.2674 56.2507 89.4077 53.65C90.548 51.0492 90.9716 48.1907 90.6345 45.371C90.5937 45.0561 90.4308 44.7697 90.1809 44.5737C89.931 44.3777 89.6141 44.2877 89.2985 44.323C88.9826 44.3611 88.6947 44.523 88.4982 44.7732C88.3017 45.0235 88.2126 45.3415 88.2505 45.6574C88.8713 50.803 86.4937 55.5134 82.7465 58.2158C82.4995 58.406 82.3362 58.6849 82.2912 58.9934C82.2462 59.3018 82.323 59.6157 82.5054 59.8685C82.6877 60.1214 82.9613 60.2933 83.2682 60.348C83.5751 60.4027 83.8913 60.3358 84.1497 60.1614ZM87.8985 41.6638C88.1042 41.6634 88.3063 41.6102 88.4854 41.5092C88.6646 41.4082 88.8148 41.2629 88.9216 41.0871C89.0284 40.9114 89.0883 40.7112 89.0955 40.5056C89.1026 40.3001 89.0568 40.0962 88.9625 39.9134C88.8201 39.6398 88.6713 39.3694 88.5145 39.1054C88.4341 38.9698 88.3279 38.8513 88.2017 38.7568C88.0755 38.6622 87.932 38.5935 87.7793 38.5544C87.6265 38.5153 87.4676 38.5067 87.3115 38.529C87.1555 38.5514 87.0053 38.6043 86.8697 38.6846C86.7341 38.765 86.6156 38.8713 86.5211 38.9974C86.4265 39.1236 86.3577 39.2671 86.3187 39.4199C86.2796 39.5726 86.271 39.7315 86.2933 39.8876C86.3157 40.0437 86.3685 40.1938 86.4489 40.3294C86.8457 40.9966 87.0377 41.6638 87.8985 41.6638ZM88.6713 21.1678L91.2281 17.4798C91.4097 17.2184 91.4801 16.8956 91.4237 16.5823C91.3672 16.2691 91.1887 15.991 90.9273 15.8094C90.6659 15.6278 90.3431 15.5575 90.0298 15.6139C89.7166 15.6703 89.4385 15.8488 89.2569 16.1102L86.6985 19.7982C86.5171 20.0598 86.4471 20.3828 86.5038 20.6961C86.5605 21.0093 86.7393 21.2872 87.0009 21.4686C87.2625 21.65 87.5855 21.7201 87.8987 21.6634C88.212 21.6067 88.4899 21.4294 88.6713 21.1678ZM106.935 40.1758C107.251 40.1338 107.537 39.9681 107.731 39.7152C107.924 39.4622 108.009 39.1427 107.967 38.827C107.925 38.5113 107.76 38.2252 107.507 38.0317C107.254 37.8381 106.934 37.753 106.619 37.795L101.235 38.507C100.934 38.5483 100.66 38.7019 100.468 38.9369C100.276 39.172 100.181 39.4709 100.2 39.7737C100.22 40.0764 100.354 40.3605 100.574 40.5687C100.795 40.7769 101.086 40.8938 101.39 40.8958C101.516 40.8958 100.615 41.0046 106.935 40.1758ZM63.4409 16.8638C63.7561 16.8216 64.0417 16.6561 64.2349 16.4035C64.4281 16.1509 64.5131 15.8319 64.4713 15.5166L63.7993 10.499C63.7835 10.3388 63.7356 10.1834 63.6584 10.042C63.5813 9.9007 63.4765 9.77634 63.3503 9.67636C63.224 9.57637 63.079 9.50282 62.9237 9.46006C62.7685 9.41731 62.6062 9.40624 62.4466 9.4275C62.287 9.44877 62.1333 9.50194 61.9947 9.58385C61.8561 9.66576 61.7353 9.77473 61.6397 9.90428C61.5441 10.0338 61.4755 10.1813 61.438 10.3379C61.4006 10.4945 61.395 10.657 61.4217 10.8158L62.0937 15.8334C62.1359 16.1486 62.3015 16.4342 62.5541 16.6274C62.8067 16.8206 63.1257 16.9056 63.4409 16.8638ZM45.8473 29.6318C47.0537 29.6318 47.5049 28.0446 46.4777 27.4126L42.1641 24.7518C42.03 24.6629 41.8794 24.6018 41.7212 24.5722C41.563 24.5427 41.4005 24.5452 41.2433 24.5798C41.0862 24.6143 40.9375 24.6801 40.8063 24.7732C40.6751 24.8663 40.5639 24.9849 40.4794 25.1219C40.3949 25.2588 40.3389 25.4114 40.3146 25.5705C40.2902 25.7295 40.2982 25.8919 40.3379 26.0478C40.3776 26.2038 40.4482 26.3502 40.5456 26.4782C40.6431 26.6063 40.7652 26.7135 40.9049 26.7934C45.3241 29.4494 45.2489 29.6318 45.8473 29.6318ZM97.8905 61.7582C97.8078 61.8924 97.7524 62.0415 97.7273 62.1971C97.7023 62.3527 97.7081 62.5117 97.7445 62.665C97.7809 62.8183 97.8472 62.963 97.9395 63.0907C98.0318 63.2185 98.1483 63.3268 98.2825 63.4094C102.977 66.2318 102.887 66.4094 103.486 66.4094C104.694 66.4094 105.143 64.8206 104.118 64.1886L99.5417 61.3662C99.4076 61.2835 99.2584 61.2281 99.1028 61.203C98.9473 61.178 98.7883 61.1838 98.6349 61.2202C98.4816 61.2566 98.3369 61.3229 98.2092 61.4152C98.0815 61.5075 97.9732 61.6241 97.8905 61.7582Z" fill="rgb(218,208,238)" fill-rule="nonzero" />
		<path id="Vector" d="M12.0273 109.343C12.0273 110.004 12.5649 110.543 13.2273 110.543L82.6385 110.543C82.9568 110.543 83.262 110.417 83.4871 110.192C83.7121 109.967 83.8385 109.662 83.8385 109.343C83.8385 109.025 83.7121 108.72 83.4871 108.495C83.262 108.27 82.9568 108.143 82.6385 108.143L39.1313 108.143C44.5809 106.18 50.7889 104.515 54.9633 101.471C61.7857 96.5019 55.7761 94.2411 59.3473 84.4027C63.7025 85.9387 64.5154 82.5147 65.2802 81.2667C66.2273 79.7403 64.8194 77.8843 63.2369 76.9083C67.6577 72.8523 73.8225 71.7051 79.2241 70.2363C88.8081 67.6315 96.1841 58.9083 97.1569 49.0251C98.4049 36.3691 89.1601 24.6491 76.6577 21.8075C70.1409 20.3291 63.3137 21.4283 57.9265 24.8363C49.5329 30.1483 45.0513 40.6539 47.0273 50.3883C48.5553 57.8987 50.2977 62.0795 47.8481 67.4635C46.6961 66.7595 45.3217 66.0907 43.9489 66.4475C42.6609 66.7771 42.6657 67.4939 41.0593 70.1131C40.2145 71.4763 41.1857 73.1691 42.5201 74.2683C35.2161 81.8395 30.7921 77.3755 29.4081 85.7163C28.4209 91.7003 29.5265 98.8827 29.5537 105.204C29.5601 106.302 29.9649 107.329 30.6497 108.142L13.2273 108.142C12.9091 108.142 12.6039 108.268 12.3788 108.493C12.1538 108.718 12.0273 109.025 12.0273 109.343ZM61.2385 56.9515C62.045 57.5496 62.9569 57.9903 63.9265 58.2507C61.9585 63.3067 59.3537 69.6971 57.2705 73.2427L52.5825 70.3659C55.6545 66.0379 58.5665 61.5339 61.2385 56.9515ZM62.6145 46.0763C62.8401 46.1675 62.9425 46.8203 62.1441 49.4011C61.9537 49.9515 61.8065 50.8411 60.8545 52.7211C59.7682 50.0379 61.4337 45.5899 62.6145 46.0763ZM49.3809 49.9099C47.6241 41.2699 51.7585 31.5787 59.2097 26.8635C74.8289 16.9787 96.5857 30.3995 94.7697 48.7883C93.9057 57.5611 87.1009 65.6091 78.5937 67.9227C72.2225 69.6507 65.8737 70.8731 61.1153 75.6027L59.3137 74.4971C61.6001 70.6219 64.3393 63.8363 66.4177 58.4731C69.9377 58.1659 72.9841 55.2091 73.3777 51.6891C73.7665 48.1915 70.8321 46.6971 68.5889 48.3035C67.1169 49.3563 66.7473 50.9403 64.8001 55.9915C63.9348 55.8018 63.127 55.4092 62.4433 54.8459C64.0721 51.8939 64.2242 50.6859 64.437 50.1099C65.0417 48.1563 66.0529 44.8875 63.5217 43.8539C59.5777 42.2491 57.3505 48.8571 58.3377 52.7323C58.5649 53.6219 58.9633 54.4491 59.4897 55.1835C56.7236 59.9632 53.7348 64.6104 50.5329 69.1099L49.9057 68.7259C52.9633 62.2891 50.8113 56.9867 49.3809 49.9099ZM67.4417 55.8043C68.6577 52.6459 69.3441 50.0747 70.5074 50.0747C71.5905 50.0747 71.1041 54.4667 67.4417 55.8043ZM32.8561 82.9995C34.4321 81.2475 38.9857 81.6875 44.6097 75.6027C45.9153 76.4011 57.1217 83.3531 57.1617 83.3787C54.3345 90.9403 56.6737 95.0507 55.8417 97.1739C55.4961 98.0619 54.6369 98.7403 53.5505 99.5323C48.9377 102.892 41.0705 104.577 34.9089 107.207C34.6657 107.311 34.4145 107.351 34.1649 107.361L42.6689 93.5675C44.9137 93.8715 46.5521 92.2827 46.7297 90.5051C46.7892 89.8346 46.6499 89.1614 46.3293 88.5696C46.0086 87.9777 45.5207 87.4934 44.9265 87.1771C42.1521 85.7595 38.3025 88.8411 40.6113 92.3291L32.1473 106.057C32.0257 105.785 31.9604 105.491 31.9553 105.193C31.9281 98.8539 30.3073 85.8219 32.8561 82.9995Z" fill="rgb(218,208,238)" fill-rule="nonzero" />
	</g>
</svg>
