<svg viewBox="0 0 120 120" xmlns="http://www.w3.org/2000/svg" xmlns:xlink="http://www.w3.org/1999/xlink" width="120.000000" height="120.000000" fill="none">
	<defs>
		<clipPath id="clipPath_0">
			<rect width="120.000000" height="120.000000" x="0.000000" y="0.000000" fill="rgb(255,255,255)" />
		</clipPath>
		<clipPath id="clipPath_1">
			<rect width="73.460869" height="64.000000" x="23.257812" y="28.000000" fill="rgb(255,255,255)" />
		</clipPath>
	</defs>
	<rect id="pie chart" width="120.000000" height="120.000000" x="0.000000" y="0.000000" fill="rgb(255,255,255)" fill-opacity="0" />
	<g id="chart" customFrame="url(#clipPath_0)">
		<rect id="chart" width="120.000000" height="120.000000" x="0.000000" y="0.000000" />
		<path id="vector" d="M60 0C93.1371 0 120 26.8629 120 60C120 93.1371 93.1371 120 60 120C26.8629 120 0 93.1371 0 60C0 26.8629 26.8629 0 60 0ZM60 8.4C88.4979 8.4 111.6 31.5021 111.6 60C111.6 88.4979 88.4979 111.6 60 111.6C31.5021 111.6 8.4 88.4979 8.4 60C8.4 31.5021 31.5021 8.4 60 8.4Z" fill="rgb(241,244,249)" fillRule="evenodd" transform="matrix(6.12323e-17,-1,1,6.12323e-17,0,120)" />
		<path id="vector" d="M52.7852 119.567C52.1569 119.49 51.7209 118.909 51.809 118.282L52.6589 112.234C52.7472 111.607 53.3274 111.171 53.957 111.245C58.6787 111.804 63.3343 111.702 67.8258 111.005C68.4531 110.908 69.0497 111.324 69.16 111.949L70.2196 117.958C70.3297 118.582 69.913 119.179 69.2867 119.277C63.6935 120.155 58.1514 120.226 52.7852 119.567Z" fill="rgb(133,113,244)" fillRule="evenodd" transform="matrix(6.12323e-17,-1,1,6.12323e-17,0,120)" />
		<path id="vector" d="M73.5933 118.442C72.9765 118.584 72.3681 118.188 72.2365 117.568L70.9669 111.595C70.8351 110.975 71.2312 110.367 71.8483 110.222C76.4763 109.131 80.8161 107.443 84.7986 105.253C85.3549 104.947 86.0577 105.133 86.3751 105.683L89.4261 110.967C89.743 111.516 89.5555 112.219 89.0006 112.526C84.045 115.264 78.8612 117.226 73.5933 118.442Z" fill="rgb(133,113,244)" fillRule="evenodd" transform="matrix(6.12323e-17,-1,1,6.12323e-17,0,120)" />
		<path id="vector" d="M16.1844 100.993C15.7526 100.53 15.7922 99.8049 16.2626 99.3814L20.8007 95.2952C21.2718 94.871 21.9967 94.91 22.431 95.3717C25.6891 98.8346 29.3211 101.749 33.2094 104.103C33.7525 104.431 33.9423 105.133 33.6249 105.683L30.5739 110.967C30.2569 111.516 29.5543 111.706 29.0114 111.378C24.1623 108.456 19.8717 104.947 16.1844 100.993Z" fill="rgb(133,113,244)" fillRule="evenodd" transform="matrix(6.12323e-17,-1,1,6.12323e-17,0,120)" />
		<path id="vector" d="M4.80625 83.5351C4.5589 82.9524 4.84411 82.2843 5.43105 82.0472L11.093 79.7596C11.6808 79.5221 12.3486 79.8067 12.5989 80.3891C14.4761 84.7575 16.8923 88.7383 19.7411 92.28C20.139 92.7746 20.0774 93.4991 19.5911 93.9071L14.9166 97.8295C14.431 98.2369 13.7061 98.1743 13.3078 97.6811C9.75081 93.2763 6.91885 88.5118 4.80625 83.5351Z" fill="rgb(133,113,244)" fillRule="evenodd" transform="matrix(6.12323e-17,-1,1,6.12323e-17,0,120)" />
		<path id="vector" d="M32.8473 113.507C32.2832 113.219 32.0723 112.524 32.3695 111.965L35.2364 106.574C35.534 106.014 36.2285 105.803 36.7946 106.088C41.0406 108.228 45.4502 109.724 49.909 110.606C50.5318 110.729 50.9503 111.324 50.84 111.949L49.7804 117.958C49.6704 118.582 49.0748 119 48.4527 118.879C42.8964 117.791 37.6646 115.961 32.8473 113.507Z" fill="rgb(133,113,244)" fillRule="evenodd" transform="matrix(6.12323e-17,-1,1,6.12323e-17,0,120)" />
		<g id="Frame 1000012722" customFrame="url(#clipPath_1)">
			<rect id="Frame 1000012722" width="73.460869" height="64.000000" x="23.257812" y="28.000000" />
			<path id="5" d="M60.1369 54.136C59.4009 54.136 58.6729 54.056 57.9529 53.896C57.2489 53.736 56.5849 53.512 55.9609 53.224C55.3529 52.936 54.8249 52.6 54.3769 52.216L55.3849 49.864C56.1209 50.424 56.8809 50.848 57.6649 51.136C58.4489 51.408 59.2569 51.544 60.0889 51.544C61.0969 51.544 61.8809 51.288 62.4409 50.776C63.0169 50.248 63.3049 49.544 63.3049 48.664C63.3049 47.768 63.0329 47.048 62.4889 46.504C61.9449 45.944 61.2009 45.664 60.2569 45.664C59.5689 45.664 58.9529 45.8 58.4089 46.072C57.8649 46.328 57.3689 46.728 56.9209 47.272L54.8569 47.272L54.8569 36.976L65.2489 36.976L65.2489 39.52L57.8569 39.52L57.8569 44.896L57.0649 44.896C57.4809 44.336 58.0249 43.904 58.6969 43.6C59.3849 43.296 60.1449 43.144 60.9769 43.144C62.0489 43.144 62.9769 43.376 63.7609 43.84C64.5609 44.288 65.1769 44.92 65.6089 45.736C66.0569 46.536 66.2809 47.472 66.2809 48.544C66.2809 49.648 66.0329 50.624 65.5369 51.472C65.0409 52.304 64.3289 52.96 63.4009 53.44C62.4889 53.904 61.4009 54.136 60.1369 54.136Z" fill="rgb(133,113,244)" fillRule="nonzero" />
			<path id="Weeks completed" d="M44.8376 74.948L41.8736 66.488L42.9056 66.488L45.5096 74.108L45.0896 74.108L47.7416 66.488L48.5336 66.488L51.1496 74.108L50.7776 74.108L53.3936 66.488L54.3776 66.488L51.4136 74.948L50.5376 74.948L47.9936 67.628L48.2576 67.628L45.6896 74.948L44.8376 74.948ZM57.5575 75.056C56.9415 75.056 56.4095 74.936 55.9615 74.696C55.5215 74.448 55.1775 74.1 54.9295 73.652C54.6895 73.204 54.5695 72.668 54.5695 72.044C54.5695 71.436 54.6895 70.908 54.9295 70.46C55.1695 70.004 55.4975 69.648 55.9135 69.392C56.3375 69.136 56.8255 69.008 57.3775 69.008C57.9055 69.008 58.3575 69.124 58.7335 69.356C59.1095 69.588 59.3975 69.916 59.5975 70.34C59.8055 70.764 59.9095 71.272 59.9095 71.864L59.9095 72.236L55.3135 72.236L55.3135 71.6L59.2615 71.6L59.0695 71.756C59.0695 71.116 58.9255 70.62 58.6375 70.268C58.3575 69.908 57.9455 69.728 57.4015 69.728C56.9935 69.728 56.6455 69.824 56.3575 70.016C56.0775 70.2 55.8655 70.46 55.7215 70.796C55.5775 71.124 55.5055 71.508 55.5055 71.948L55.5055 72.02C55.5055 72.508 55.5815 72.92 55.7335 73.256C55.8935 73.592 56.1295 73.848 56.4415 74.024C56.7535 74.192 57.1255 74.276 57.5575 74.276C57.9015 74.276 58.2335 74.224 58.5535 74.12C58.8815 74.008 59.1895 73.828 59.4775 73.58L59.8135 74.264C59.5495 74.504 59.2135 74.696 58.8055 74.84C58.3975 74.984 57.9815 75.056 57.5575 75.056ZM63.9443 75.056C63.3283 75.056 62.7963 74.936 62.3483 74.696C61.9083 74.448 61.5643 74.1 61.3163 73.652C61.0763 73.204 60.9563 72.668 60.9563 72.044C60.9563 71.436 61.0763 70.908 61.3163 70.46C61.5563 70.004 61.8843 69.648 62.3003 69.392C62.7243 69.136 63.2123 69.008 63.7643 69.008C64.2923 69.008 64.7443 69.124 65.1203 69.356C65.4963 69.588 65.7843 69.916 65.9843 70.34C66.1923 70.764 66.2963 71.272 66.2963 71.864L66.2963 72.236L61.7003 72.236L61.7003 71.6L65.6483 71.6L65.4563 71.756C65.4563 71.116 65.3123 70.62 65.0243 70.268C64.7443 69.908 64.3323 69.728 63.7883 69.728C63.3803 69.728 63.0323 69.824 62.7443 70.016C62.4643 70.2 62.2523 70.46 62.1083 70.796C61.9643 71.124 61.8923 71.508 61.8923 71.948L61.8923 72.02C61.8923 72.508 61.9683 72.92 62.1203 73.256C62.2803 73.592 62.5163 73.848 62.8283 74.024C63.1403 74.192 63.5123 74.276 63.9443 74.276C64.2883 74.276 64.6203 74.224 64.9403 74.12C65.2683 74.008 65.5763 73.828 65.8643 73.58L66.2003 74.264C65.9363 74.504 65.6003 74.696 65.1923 74.84C64.7843 74.984 64.3683 75.056 63.9443 75.056ZM67.703 74.948L67.703 66.488L68.675 66.488L68.675 71.708L68.699 71.708L71.399 69.116L72.635 69.116L69.431 72.188L69.431 71.66L72.887 74.948L71.651 74.948L68.699 72.212L68.675 72.212L68.675 74.948L67.703 74.948ZM75.5655 75.056C75.2615 75.056 74.9655 75.024 74.6775 74.96C74.3975 74.904 74.1335 74.824 73.8855 74.72C73.6455 74.608 73.4375 74.476 73.2615 74.324L73.5735 73.64C73.7655 73.792 73.9735 73.92 74.1975 74.024C74.4215 74.12 74.6495 74.192 74.8815 74.24C75.1135 74.288 75.3495 74.312 75.5895 74.312C76.0455 74.312 76.3895 74.228 76.6215 74.06C76.8535 73.892 76.9695 73.664 76.9695 73.376C76.9695 73.152 76.8935 72.976 76.7415 72.848C76.5895 72.712 76.3495 72.608 76.0215 72.536L74.9295 72.296C74.4255 72.192 74.0495 72.012 73.8015 71.756C73.5615 71.5 73.4415 71.168 73.4415 70.76C73.4415 70.4 73.5335 70.092 73.7175 69.836C73.9095 69.572 74.1775 69.368 74.5215 69.224C74.8655 69.08 75.2655 69.008 75.7215 69.008C75.9935 69.008 76.2535 69.036 76.5015 69.092C76.7495 69.148 76.9815 69.232 77.1975 69.344C77.4215 69.448 77.6135 69.58 77.7735 69.74L77.4495 70.424C77.2975 70.28 77.1255 70.16 76.9335 70.064C76.7415 69.96 76.5415 69.884 76.3335 69.836C76.1335 69.78 75.9295 69.752 75.7215 69.752C75.2735 69.752 74.9335 69.84 74.7015 70.016C74.4695 70.192 74.3535 70.424 74.3535 70.712C74.3535 70.936 74.4255 71.12 74.5695 71.264C74.7135 71.408 74.9375 71.512 75.2415 71.576L76.3335 71.804C76.8535 71.916 77.2415 72.096 77.4975 72.344C77.7615 72.584 77.8935 72.912 77.8935 73.328C77.8935 73.68 77.7975 73.988 77.6055 74.252C77.4135 74.508 77.1415 74.708 76.7895 74.852C76.4455 74.988 76.0375 75.056 75.5655 75.056ZM34.9836 89.056C34.3996 89.056 33.8956 88.928 33.4716 88.672C33.0476 88.416 32.7196 88.06 32.4876 87.604C32.2636 87.14 32.1516 86.604 32.1516 85.996C32.1516 85.38 32.2636 84.848 32.4876 84.4C32.7196 83.952 33.0476 83.608 33.4716 83.368C33.8956 83.128 34.3996 83.008 34.9836 83.008C35.3436 83.008 35.6996 83.072 36.0516 83.2C36.4036 83.328 36.6956 83.508 36.9276 83.74L36.5916 84.448C36.3596 84.224 36.1036 84.06 35.8236 83.956C35.5516 83.852 35.2916 83.8 35.0436 83.8C34.4356 83.8 33.9676 83.992 33.6396 84.376C33.3116 84.752 33.1476 85.296 33.1476 86.008C33.1476 86.704 33.3116 87.256 33.6396 87.664C33.9676 88.064 34.4356 88.264 35.0436 88.264C35.2916 88.264 35.5516 88.212 35.8236 88.108C36.1036 88.004 36.3596 87.836 36.5916 87.604L36.9276 88.312C36.6956 88.544 36.3996 88.728 36.0396 88.864C35.6876 88.992 35.3356 89.056 34.9836 89.056ZM40.3731 89.056C39.8051 89.056 39.3131 88.932 38.8971 88.684C38.4811 88.436 38.1571 88.088 37.9251 87.64C37.7011 87.184 37.5891 86.648 37.5891 86.032C37.5891 85.416 37.7011 84.884 37.9251 84.436C38.1571 83.98 38.4811 83.628 38.8971 83.38C39.3131 83.132 39.8051 83.008 40.3731 83.008C40.9411 83.008 41.4331 83.132 41.8491 83.38C42.2651 83.628 42.5851 83.98 42.8091 84.436C43.0411 84.884 43.1571 85.416 43.1571 86.032C43.1571 86.648 43.0411 87.184 42.8091 87.64C42.5851 88.088 42.2651 88.436 41.8491 88.684C41.4331 88.932 40.9411 89.056 40.3731 89.056ZM40.3731 88.276C40.9251 88.276 41.3611 88.084 41.6811 87.7C42.0091 87.308 42.1731 86.748 42.1731 86.02C42.1731 85.3 42.0091 84.748 41.6811 84.364C41.3611 83.98 40.9251 83.788 40.3731 83.788C39.8291 83.788 39.3931 83.98 39.0651 84.364C38.7371 84.748 38.5731 85.3 38.5731 86.02C38.5731 86.748 38.7371 87.308 39.0651 87.7C39.3931 88.084 39.8291 88.276 40.3731 88.276ZM44.641 88.948L44.641 83.116L45.589 83.116L45.589 84.412L45.457 84.412C45.553 84.116 45.693 83.864 45.877 83.656C46.069 83.44 46.293 83.28 46.549 83.176C46.813 83.064 47.101 83.008 47.413 83.008C47.909 83.008 48.309 83.128 48.613 83.368C48.925 83.6 49.133 83.964 49.237 84.46L49.057 84.46C49.201 84.012 49.457 83.66 49.825 83.404C50.201 83.14 50.637 83.008 51.133 83.008C51.573 83.008 51.933 83.092 52.213 83.26C52.501 83.428 52.717 83.684 52.861 84.028C53.005 84.364 53.077 84.792 53.077 85.312L53.077 88.948L52.105 88.948L52.105 85.36C52.105 84.824 52.013 84.432 51.829 84.184C51.645 83.928 51.333 83.8 50.893 83.8C50.581 83.8 50.305 83.876 50.065 84.028C49.833 84.18 49.653 84.396 49.525 84.676C49.405 84.948 49.345 85.272 49.345 85.648L49.345 88.948L48.373 88.948L48.373 85.36C48.373 84.824 48.277 84.432 48.085 84.184C47.901 83.928 47.593 83.8 47.161 83.8C46.841 83.8 46.565 83.876 46.333 84.028C46.101 84.18 45.921 84.396 45.793 84.676C45.673 84.948 45.613 85.272 45.613 85.648L45.613 88.948L44.641 88.948ZM54.8944 91.108L54.8944 83.116L55.8424 83.116L55.8424 84.496L55.7224 84.496C55.8504 84.04 56.1024 83.68 56.4784 83.416C56.8624 83.144 57.3184 83.008 57.8464 83.008C58.3664 83.008 58.8184 83.132 59.2024 83.38C59.5944 83.62 59.8944 83.968 60.1024 84.424C60.3184 84.872 60.4264 85.408 60.4264 86.032C60.4264 86.648 60.3184 87.184 60.1024 87.64C59.8944 88.088 59.5984 88.436 59.2144 88.684C58.8304 88.932 58.3744 89.056 57.8464 89.056C57.3184 89.056 56.8664 88.924 56.4904 88.66C56.1144 88.388 55.8584 88.028 55.7224 87.58L55.8664 87.58L55.8664 91.108L54.8944 91.108ZM57.6424 88.276C58.1944 88.276 58.6304 88.084 58.9504 87.7C59.2784 87.308 59.4424 86.752 59.4424 86.032C59.4424 85.304 59.2784 84.748 58.9504 84.364C58.6304 83.98 58.1944 83.788 57.6424 83.788C57.0984 83.788 56.6624 83.98 56.3344 84.364C56.0064 84.748 55.8424 85.304 55.8424 86.032C55.8424 86.752 56.0064 87.308 56.3344 87.7C56.6624 88.084 57.0984 88.276 57.6424 88.276ZM63.6785 89.056C63.0865 89.056 62.6385 88.88 62.3345 88.528C62.0385 88.176 61.8905 87.672 61.8905 87.016L61.8905 80.488L62.8625 80.488L62.8625 86.944C62.8625 87.224 62.8985 87.46 62.9705 87.652C63.0505 87.844 63.1665 87.988 63.3185 88.084C63.4705 88.18 63.6585 88.228 63.8825 88.228C63.9785 88.228 64.0705 88.224 64.1585 88.216C64.2545 88.2 64.3425 88.18 64.4225 88.156L64.3985 88.972C64.2705 88.996 64.1465 89.016 64.0265 89.032C63.9145 89.048 63.7985 89.056 63.6785 89.056ZM68.0107 89.056C67.3947 89.056 66.8627 88.936 66.4147 88.696C65.9747 88.448 65.6307 88.1 65.3827 87.652C65.1427 87.204 65.0227 86.668 65.0227 86.044C65.0227 85.436 65.1427 84.908 65.3827 84.46C65.6227 84.004 65.9507 83.648 66.3667 83.392C66.7907 83.136 67.2787 83.008 67.8307 83.008C68.3587 83.008 68.8107 83.124 69.1867 83.356C69.5627 83.588 69.8507 83.916 70.0507 84.34C70.2587 84.764 70.3627 85.272 70.3627 85.864L70.3627 86.236L65.7667 86.236L65.7667 85.6L69.7147 85.6L69.5227 85.756C69.5227 85.116 69.3787 84.62 69.0907 84.268C68.8107 83.908 68.3987 83.728 67.8547 83.728C67.4467 83.728 67.0987 83.824 66.8107 84.016C66.5307 84.2 66.3187 84.46 66.1747 84.796C66.0307 85.124 65.9587 85.508 65.9587 85.948L65.9587 86.02C65.9587 86.508 66.0347 86.92 66.1867 87.256C66.3467 87.592 66.5827 87.848 66.8947 88.024C67.2067 88.192 67.5787 88.276 68.0107 88.276C68.3547 88.276 68.6867 88.224 69.0067 88.12C69.3347 88.008 69.6427 87.828 69.9307 87.58L70.2667 88.264C70.0027 88.504 69.6667 88.696 69.2587 88.84C68.8507 88.984 68.4347 89.056 68.0107 89.056ZM74.1094 89.056C73.4214 89.056 72.9054 88.872 72.5614 88.504C72.2174 88.136 72.0454 87.612 72.0454 86.932L72.0454 83.872L70.9054 83.872L70.9054 83.116L72.0454 83.116L72.0454 81.328L73.0174 81.328L73.0174 83.116L74.8654 83.116L74.8654 83.872L73.0174 83.872L73.0174 86.836C73.0174 87.292 73.1134 87.64 73.3054 87.88C73.4974 88.112 73.8094 88.228 74.2414 88.228C74.3694 88.228 74.4974 88.212 74.6254 88.18C74.7534 88.148 74.8694 88.116 74.9734 88.084L75.1414 88.828C75.0374 88.884 74.8854 88.936 74.6854 88.984C74.4854 89.032 74.2934 89.056 74.1094 89.056ZM78.5341 89.056C77.9181 89.056 77.3861 88.936 76.9381 88.696C76.4981 88.448 76.1541 88.1 75.9061 87.652C75.6661 87.204 75.5461 86.668 75.5461 86.044C75.5461 85.436 75.6661 84.908 75.9061 84.46C76.1461 84.004 76.4741 83.648 76.8901 83.392C77.3141 83.136 77.8021 83.008 78.3541 83.008C78.8821 83.008 79.3341 83.124 79.7101 83.356C80.0861 83.588 80.3741 83.916 80.5741 84.34C80.7821 84.764 80.8861 85.272 80.8861 85.864L80.8861 86.236L76.2901 86.236L76.2901 85.6L80.2381 85.6L80.0461 85.756C80.0461 85.116 79.9021 84.62 79.6141 84.268C79.3341 83.908 78.9221 83.728 78.3781 83.728C77.9701 83.728 77.6221 83.824 77.3341 84.016C77.0541 84.2 76.8421 84.46 76.6981 84.796C76.5541 85.124 76.4821 85.508 76.4821 85.948L76.4821 86.02C76.4821 86.508 76.5581 86.92 76.7101 87.256C76.8701 87.592 77.1061 87.848 77.4181 88.024C77.7301 88.192 78.1021 88.276 78.5341 88.276C78.8781 88.276 79.2101 88.224 79.5301 88.12C79.8581 88.008 80.1661 87.828 80.4541 87.58L80.7901 88.264C80.5261 88.504 80.1901 88.696 79.7821 88.84C79.3741 88.984 78.9581 89.056 78.5341 89.056ZM84.5128 89.056C83.9928 89.056 83.5368 88.932 83.1448 88.684C82.7608 88.436 82.4608 88.088 82.2448 87.64C82.0368 87.184 81.9328 86.648 81.9328 86.032C81.9328 85.408 82.0368 84.872 82.2448 84.424C82.4608 83.968 82.7608 83.62 83.1448 83.38C83.5368 83.132 83.9928 83.008 84.5128 83.008C85.0408 83.008 85.4928 83.14 85.8688 83.404C86.2448 83.668 86.4968 84.024 86.6248 84.472L86.4928 84.472L86.4928 80.488L87.4648 80.488L87.4648 88.948L86.5168 88.948L86.5168 87.556L86.6368 87.556C86.5088 88.012 86.2528 88.376 85.8688 88.648C85.4928 88.92 85.0408 89.056 84.5128 89.056ZM84.7168 88.276C85.2688 88.276 85.7048 88.084 86.0248 87.7C86.3528 87.308 86.5168 86.752 86.5168 86.032C86.5168 85.304 86.3528 84.748 86.0248 84.364C85.7048 83.98 85.2688 83.788 84.7168 83.788C84.1728 83.788 83.7368 83.98 83.4088 84.364C83.0808 84.748 82.9168 85.304 82.9168 86.032C82.9168 86.752 83.0808 87.308 83.4088 87.7C83.7368 88.084 84.1728 88.276 84.7168 88.276Z" fill="rgb(106,114,131)" fillRule="nonzero" />
		</g>
	</g>
</svg>
