<svg viewBox="0 0 120 120" xmlns="http://www.w3.org/2000/svg" xmlns:xlink="http://www.w3.org/1999/xlink" width="120.000000" height="120.000000" fill="none">
	<defs>
		<clipPath id="clipPath_4">
			<rect width="120.000000" height="120.000000" x="0.000000" y="0.000000" fill="rgb(255,255,255)" />
		</clipPath>
		<clipPath id="clipPath_5">
			<rect width="73.460869" height="64.000000" x="23.257812" y="28.000000" fill="rgb(255,255,255)" />
		</clipPath>
	</defs>
	<rect id="pie chart" width="120.000000" height="120.000000" x="0.000000" y="0.000000" fill="rgb(255,255,255)" fill-opacity="0" />
	<g id="chart" customFrame="url(#clipPath_4)">
		<rect id="chart" width="120.000000" height="120.000000" x="0.000000" y="0.000000" />
		<path id="vector" d="M60 0C93.1371 0 120 26.8629 120 60C120 93.1371 93.1371 120 60 120C26.8629 120 0 93.1371 0 60C0 26.8629 26.8629 0 60 0ZM60 8.4C88.4979 8.4 111.6 31.5021 111.6 60C111.6 88.4979 88.4979 111.6 60 111.6C31.5021 111.6 8.4 88.4979 8.4 60C8.4 31.5021 31.5021 8.4 60 8.4Z" fill="rgb(241,244,249)" fill-rule="evenodd" transform="matrix(6.12323e-17,-1,1,6.12323e-17,0,120)" />
		<path id="vector" d="M73.5933 118.442C72.9765 118.584 72.3681 118.188 72.2365 117.568L70.9669 111.595C70.8351 110.975 71.2312 110.367 71.8483 110.222C76.4763 109.131 80.8161 107.443 84.7986 105.253C85.3549 104.947 86.0577 105.133 86.3751 105.683L89.4261 110.967C89.743 111.516 89.5555 112.219 89.0006 112.526C84.045 115.264 78.8612 117.226 73.5933 118.442Z" fill="rgb(133,113,244)" fill-rule="evenodd" transform="matrix(6.12323e-17,-1,1,6.12323e-17,0,120)" />
		<g id="Frame 1000012722" customFrame="url(#clipPath_5)">
			<rect id="Frame 1000012722" width="73.460869" height="64.000000" x="23.257812" y="28.000000" />
			<path id="1" d="M55.4089 53.896L55.4089 51.352L59.2249 51.352L59.2249 39.568L60.7129 39.568L56.2729 42.256L55.0729 40L60.1129 36.976L62.2969 36.976L62.2969 51.352L65.8729 51.352L65.8729 53.896L55.4089 53.896Z" fill="rgb(133,113,244)" fill-rule="nonzero" />
			<path id="months completed" d="M40.645 74.948L40.645 69.116L41.5929 69.116L41.5929 70.412L41.461 70.412C41.5569 70.116 41.697 69.864 41.881 69.656C42.073 69.44 42.297 69.28 42.5529 69.176C42.8169 69.064 43.1049 69.008 43.417 69.008C43.9129 69.008 44.313 69.128 44.617 69.368C44.929 69.6 45.137 69.964 45.241 70.46L45.061 70.46C45.2049 70.012 45.461 69.66 45.8289 69.404C46.2049 69.14 46.6409 69.008 47.137 69.008C47.577 69.008 47.937 69.092 48.2169 69.26C48.505 69.428 48.721 69.684 48.865 70.028C49.0089 70.364 49.0809 70.792 49.0809 71.312L49.0809 74.948L48.109 74.948L48.109 71.36C48.109 70.824 48.017 70.432 47.833 70.184C47.6489 69.928 47.337 69.8 46.8969 69.8C46.5849 69.8 46.309 69.876 46.069 70.028C45.837 70.18 45.657 70.396 45.5289 70.676C45.409 70.948 45.3489 71.272 45.3489 71.648L45.3489 74.948L44.3769 74.948L44.3769 71.36C44.3769 70.824 44.281 70.432 44.089 70.184C43.9049 69.928 43.597 69.8 43.165 69.8C42.8449 69.8 42.569 69.876 42.337 70.028C42.1049 70.18 41.9249 70.396 41.797 70.676C41.6769 70.948 41.617 71.272 41.617 71.648L41.617 74.948L40.645 74.948ZM53.3223 75.056C52.7543 75.056 52.2623 74.932 51.8463 74.684C51.4303 74.436 51.1063 74.088 50.8743 73.64C50.6503 73.184 50.5383 72.648 50.5383 72.032C50.5383 71.416 50.6503 70.884 50.8743 70.436C51.1063 69.98 51.4303 69.628 51.8463 69.38C52.2623 69.132 52.7543 69.008 53.3223 69.008C53.8903 69.008 54.3823 69.132 54.7983 69.38C55.2143 69.628 55.5343 69.98 55.7583 70.436C55.9903 70.884 56.1063 71.416 56.1063 72.032C56.1063 72.648 55.9903 73.184 55.7583 73.64C55.5343 74.088 55.2143 74.436 54.7983 74.684C54.3823 74.932 53.8903 75.056 53.3223 75.056ZM53.3223 74.276C53.8743 74.276 54.3103 74.084 54.6303 73.7C54.9583 73.308 55.1223 72.748 55.1223 72.02C55.1223 71.3 54.9583 70.748 54.6303 70.364C54.3103 69.98 53.8743 69.788 53.3223 69.788C52.7783 69.788 52.3423 69.98 52.0143 70.364C51.6863 70.748 51.5223 71.3 51.5223 72.02C51.5223 72.748 51.6863 73.308 52.0143 73.7C52.3423 74.084 52.7783 74.276 53.3223 74.276ZM57.5663 74.948L57.5663 69.116L58.5143 69.116L58.5143 70.412L58.3823 70.412C58.5503 69.948 58.8223 69.6 59.1983 69.368C59.5823 69.128 60.0223 69.008 60.5183 69.008C60.9823 69.008 61.3663 69.092 61.6703 69.26C61.9823 69.42 62.2143 69.672 62.3663 70.016C62.5183 70.36 62.5943 70.792 62.5943 71.312L62.5943 74.948L61.6223 74.948L61.6223 71.372C61.6223 71.012 61.5743 70.716 61.4783 70.484C61.3903 70.252 61.2463 70.08 61.0463 69.968C60.8543 69.856 60.6023 69.8 60.2903 69.8C59.9383 69.8 59.6303 69.876 59.3663 70.028C59.1023 70.18 58.8983 70.392 58.7543 70.664C58.6103 70.936 58.5383 71.256 58.5383 71.624L58.5383 74.948L57.5663 74.948ZM66.7266 75.056C66.0386 75.056 65.5226 74.872 65.1786 74.504C64.8346 74.136 64.6626 73.612 64.6626 72.932L64.6626 69.872L63.5226 69.872L63.5226 69.116L64.6626 69.116L64.6626 67.328L65.6346 67.328L65.6346 69.116L67.4826 69.116L67.4826 69.872L65.6346 69.872L65.6346 72.836C65.6346 73.292 65.7306 73.64 65.9226 73.88C66.1146 74.112 66.4266 74.228 66.8586 74.228C66.9866 74.228 67.1146 74.212 67.2426 74.18C67.3706 74.148 67.4866 74.116 67.5906 74.084L67.7586 74.828C67.6546 74.884 67.5026 74.936 67.3026 74.984C67.1026 75.032 66.9106 75.056 66.7266 75.056ZM68.5819 74.948L68.5819 66.488L69.5539 66.488L69.5539 70.412L69.3979 70.412C69.5659 69.948 69.8379 69.6 70.2139 69.368C70.5979 69.128 71.0379 69.008 71.5339 69.008C71.9979 69.008 72.3819 69.092 72.6859 69.26C72.9979 69.428 73.2299 69.684 73.3819 70.028C73.5339 70.364 73.6099 70.792 73.6099 71.312L73.6099 74.948L72.6379 74.948L72.6379 71.372C72.6379 71.012 72.5899 70.716 72.4939 70.484C72.4059 70.252 72.2619 70.08 72.0619 69.968C71.8699 69.856 71.6179 69.8 71.3059 69.8C70.9539 69.8 70.6459 69.876 70.3819 70.028C70.1179 70.18 69.9139 70.392 69.7699 70.664C69.6259 70.936 69.5539 71.256 69.5539 71.624L69.5539 74.948L68.5819 74.948ZM77.3702 75.056C77.0662 75.056 76.7702 75.024 76.4822 74.96C76.2022 74.904 75.9382 74.824 75.6902 74.72C75.4502 74.608 75.2422 74.476 75.0662 74.324L75.3782 73.64C75.5702 73.792 75.7782 73.92 76.0022 74.024C76.2262 74.12 76.4542 74.192 76.6862 74.24C76.9182 74.288 77.1542 74.312 77.3942 74.312C77.8502 74.312 78.1942 74.228 78.4262 74.06C78.6582 73.892 78.7742 73.664 78.7742 73.376C78.7742 73.152 78.6982 72.976 78.5462 72.848C78.3942 72.712 78.1542 72.608 77.8262 72.536L76.7342 72.296C76.2302 72.192 75.8542 72.012 75.6062 71.756C75.3662 71.5 75.2462 71.168 75.2462 70.76C75.2462 70.4 75.3382 70.092 75.5222 69.836C75.7142 69.572 75.9822 69.368 76.3262 69.224C76.6702 69.08 77.0702 69.008 77.5262 69.008C77.7982 69.008 78.0582 69.036 78.3062 69.092C78.5542 69.148 78.7862 69.232 79.0022 69.344C79.2262 69.448 79.4182 69.58 79.5782 69.74L79.2542 70.424C79.1022 70.28 78.9302 70.16 78.7382 70.064C78.5462 69.96 78.3462 69.884 78.1382 69.836C77.9382 69.78 77.7342 69.752 77.5262 69.752C77.0782 69.752 76.7382 69.84 76.5062 70.016C76.2742 70.192 76.1582 70.424 76.1582 70.712C76.1582 70.936 76.2302 71.12 76.3742 71.264C76.5182 71.408 76.7422 71.512 77.0462 71.576L78.1382 71.804C78.6582 71.916 79.0462 72.096 79.3022 72.344C79.5662 72.584 79.6982 72.912 79.6982 73.328C79.6982 73.68 79.6022 73.988 79.4102 74.252C79.2182 74.508 78.9462 74.708 78.5942 74.852C78.2502 74.988 77.8422 75.056 77.3702 75.056ZM34.9836 89.056C34.3996 89.056 33.8956 88.928 33.4716 88.672C33.0476 88.416 32.7196 88.06 32.4876 87.604C32.2636 87.14 32.1516 86.604 32.1516 85.996C32.1516 85.38 32.2636 84.848 32.4876 84.4C32.7196 83.952 33.0476 83.608 33.4716 83.368C33.8956 83.128 34.3996 83.008 34.9836 83.008C35.3436 83.008 35.6996 83.072 36.0516 83.2C36.4036 83.328 36.6956 83.508 36.9276 83.74L36.5916 84.448C36.3596 84.224 36.1036 84.06 35.8236 83.956C35.5516 83.852 35.2916 83.8 35.0436 83.8C34.4356 83.8 33.9676 83.992 33.6396 84.376C33.3116 84.752 33.1476 85.296 33.1476 86.008C33.1476 86.704 33.3116 87.256 33.6396 87.664C33.9676 88.064 34.4356 88.264 35.0436 88.264C35.2916 88.264 35.5516 88.212 35.8236 88.108C36.1036 88.004 36.3596 87.836 36.5916 87.604L36.9276 88.312C36.6956 88.544 36.3996 88.728 36.0396 88.864C35.6876 88.992 35.3356 89.056 34.9836 89.056ZM40.3731 89.056C39.8051 89.056 39.3131 88.932 38.8971 88.684C38.4811 88.436 38.1571 88.088 37.9251 87.64C37.7011 87.184 37.5891 86.648 37.5891 86.032C37.5891 85.416 37.7011 84.884 37.9251 84.436C38.1571 83.98 38.4811 83.628 38.8971 83.38C39.3131 83.132 39.8051 83.008 40.3731 83.008C40.9411 83.008 41.4331 83.132 41.8491 83.38C42.2651 83.628 42.5851 83.98 42.8091 84.436C43.0411 84.884 43.1571 85.416 43.1571 86.032C43.1571 86.648 43.0411 87.184 42.8091 87.64C42.5851 88.088 42.2651 88.436 41.8491 88.684C41.4331 88.932 40.9411 89.056 40.3731 89.056ZM40.3731 88.276C40.9251 88.276 41.3611 88.084 41.6811 87.7C42.0091 87.308 42.1731 86.748 42.1731 86.02C42.1731 85.3 42.0091 84.748 41.6811 84.364C41.3611 83.98 40.9251 83.788 40.3731 83.788C39.8291 83.788 39.3931 83.98 39.0651 84.364C38.7371 84.748 38.5731 85.3 38.5731 86.02C38.5731 86.748 38.7371 87.308 39.0651 87.7C39.3931 88.084 39.8291 88.276 40.3731 88.276ZM44.641 88.948L44.641 83.116L45.589 83.116L45.589 84.412L45.457 84.412C45.553 84.116 45.693 83.864 45.877 83.656C46.069 83.44 46.293 83.28 46.549 83.176C46.813 83.064 47.101 83.008 47.413 83.008C47.909 83.008 48.309 83.128 48.613 83.368C48.925 83.6 49.133 83.964 49.237 84.46L49.057 84.46C49.201 84.012 49.457 83.66 49.825 83.404C50.201 83.14 50.637 83.008 51.133 83.008C51.573 83.008 51.933 83.092 52.213 83.26C52.501 83.428 52.717 83.684 52.861 84.028C53.005 84.364 53.077 84.792 53.077 85.312L53.077 88.948L52.105 88.948L52.105 85.36C52.105 84.824 52.013 84.432 51.829 84.184C51.645 83.928 51.333 83.8 50.893 83.8C50.581 83.8 50.305 83.876 50.065 84.028C49.833 84.18 49.653 84.396 49.525 84.676C49.405 84.948 49.345 85.272 49.345 85.648L49.345 88.948L48.373 88.948L48.373 85.36C48.373 84.824 48.277 84.432 48.085 84.184C47.901 83.928 47.593 83.8 47.161 83.8C46.841 83.8 46.565 83.876 46.333 84.028C46.101 84.18 45.921 84.396 45.793 84.676C45.673 84.948 45.613 85.272 45.613 85.648L45.613 88.948L44.641 88.948ZM54.8944 91.108L54.8944 83.116L55.8424 83.116L55.8424 84.496L55.7224 84.496C55.8504 84.04 56.1024 83.68 56.4784 83.416C56.8624 83.144 57.3184 83.008 57.8464 83.008C58.3664 83.008 58.8184 83.132 59.2024 83.38C59.5944 83.62 59.8944 83.968 60.1024 84.424C60.3184 84.872 60.4264 85.408 60.4264 86.032C60.4264 86.648 60.3184 87.184 60.1024 87.64C59.8944 88.088 59.5984 88.436 59.2144 88.684C58.8304 88.932 58.3744 89.056 57.8464 89.056C57.3184 89.056 56.8664 88.924 56.4904 88.66C56.1144 88.388 55.8584 88.028 55.7224 87.58L55.8664 87.58L55.8664 91.108L54.8944 91.108ZM57.6424 88.276C58.1944 88.276 58.6304 88.084 58.9504 87.7C59.2784 87.308 59.4424 86.752 59.4424 86.032C59.4424 85.304 59.2784 84.748 58.9504 84.364C58.6304 83.98 58.1944 83.788 57.6424 83.788C57.0984 83.788 56.6624 83.98 56.3344 84.364C56.0064 84.748 55.8424 85.304 55.8424 86.032C55.8424 86.752 56.0064 87.308 56.3344 87.7C56.6624 88.084 57.0984 88.276 57.6424 88.276ZM63.6785 89.056C63.0865 89.056 62.6385 88.88 62.3345 88.528C62.0385 88.176 61.8905 87.672 61.8905 87.016L61.8905 80.488L62.8625 80.488L62.8625 86.944C62.8625 87.224 62.8985 87.46 62.9705 87.652C63.0505 87.844 63.1665 87.988 63.3185 88.084C63.4705 88.18 63.6585 88.228 63.8825 88.228C63.9785 88.228 64.0705 88.224 64.1585 88.216C64.2545 88.2 64.3425 88.18 64.4225 88.156L64.3985 88.972C64.2705 88.996 64.1465 89.016 64.0265 89.032C63.9145 89.048 63.7985 89.056 63.6785 89.056ZM68.0107 89.056C67.3947 89.056 66.8627 88.936 66.4147 88.696C65.9747 88.448 65.6307 88.1 65.3827 87.652C65.1427 87.204 65.0227 86.668 65.0227 86.044C65.0227 85.436 65.1427 84.908 65.3827 84.46C65.6227 84.004 65.9507 83.648 66.3667 83.392C66.7907 83.136 67.2787 83.008 67.8307 83.008C68.3587 83.008 68.8107 83.124 69.1867 83.356C69.5627 83.588 69.8507 83.916 70.0507 84.34C70.2587 84.764 70.3627 85.272 70.3627 85.864L70.3627 86.236L65.7667 86.236L65.7667 85.6L69.7147 85.6L69.5227 85.756C69.5227 85.116 69.3787 84.62 69.0907 84.268C68.8107 83.908 68.3987 83.728 67.8547 83.728C67.4467 83.728 67.0987 83.824 66.8107 84.016C66.5307 84.2 66.3187 84.46 66.1747 84.796C66.0307 85.124 65.9587 85.508 65.9587 85.948L65.9587 86.02C65.9587 86.508 66.0347 86.92 66.1867 87.256C66.3467 87.592 66.5827 87.848 66.8947 88.024C67.2067 88.192 67.5787 88.276 68.0107 88.276C68.3547 88.276 68.6867 88.224 69.0067 88.12C69.3347 88.008 69.6427 87.828 69.9307 87.58L70.2667 88.264C70.0027 88.504 69.6667 88.696 69.2587 88.84C68.8507 88.984 68.4347 89.056 68.0107 89.056ZM74.1094 89.056C73.4214 89.056 72.9054 88.872 72.5614 88.504C72.2174 88.136 72.0454 87.612 72.0454 86.932L72.0454 83.872L70.9054 83.872L70.9054 83.116L72.0454 83.116L72.0454 81.328L73.0174 81.328L73.0174 83.116L74.8654 83.116L74.8654 83.872L73.0174 83.872L73.0174 86.836C73.0174 87.292 73.1134 87.64 73.3054 87.88C73.4974 88.112 73.8094 88.228 74.2414 88.228C74.3694 88.228 74.4974 88.212 74.6254 88.18C74.7534 88.148 74.8694 88.116 74.9734 88.084L75.1414 88.828C75.0374 88.884 74.8854 88.936 74.6854 88.984C74.4854 89.032 74.2934 89.056 74.1094 89.056ZM78.5341 89.056C77.9181 89.056 77.3861 88.936 76.9381 88.696C76.4981 88.448 76.1541 88.1 75.9061 87.652C75.6661 87.204 75.5461 86.668 75.5461 86.044C75.5461 85.436 75.6661 84.908 75.9061 84.46C76.1461 84.004 76.4741 83.648 76.8901 83.392C77.3141 83.136 77.8021 83.008 78.3541 83.008C78.8821 83.008 79.3341 83.124 79.7101 83.356C80.0861 83.588 80.3741 83.916 80.5741 84.34C80.7821 84.764 80.8861 85.272 80.8861 85.864L80.8861 86.236L76.2901 86.236L76.2901 85.6L80.2381 85.6L80.0461 85.756C80.0461 85.116 79.9021 84.62 79.6141 84.268C79.3341 83.908 78.9221 83.728 78.3781 83.728C77.9701 83.728 77.6221 83.824 77.3341 84.016C77.0541 84.2 76.8421 84.46 76.6981 84.796C76.5541 85.124 76.4821 85.508 76.4821 85.948L76.4821 86.02C76.4821 86.508 76.5581 86.92 76.7101 87.256C76.8701 87.592 77.1061 87.848 77.4181 88.024C77.7301 88.192 78.1021 88.276 78.5341 88.276C78.8781 88.276 79.2101 88.224 79.5301 88.12C79.8581 88.008 80.1661 87.828 80.4541 87.58L80.7901 88.264C80.5261 88.504 80.1901 88.696 79.7821 88.84C79.3741 88.984 78.9581 89.056 78.5341 89.056ZM84.5128 89.056C83.9928 89.056 83.5368 88.932 83.1448 88.684C82.7608 88.436 82.4608 88.088 82.2448 87.64C82.0368 87.184 81.9328 86.648 81.9328 86.032C81.9328 85.408 82.0368 84.872 82.2448 84.424C82.4608 83.968 82.7608 83.62 83.1448 83.38C83.5368 83.132 83.9928 83.008 84.5128 83.008C85.0408 83.008 85.4928 83.14 85.8688 83.404C86.2448 83.668 86.4968 84.024 86.6248 84.472L86.4928 84.472L86.4928 80.488L87.4648 80.488L87.4648 88.948L86.5168 88.948L86.5168 87.556L86.6368 87.556C86.5088 88.012 86.2528 88.376 85.8688 88.648C85.4928 88.92 85.0408 89.056 84.5128 89.056ZM84.7168 88.276C85.2688 88.276 85.7048 88.084 86.0248 87.7C86.3528 87.308 86.5168 86.752 86.5168 86.032C86.5168 85.304 86.3528 84.748 86.0248 84.364C85.7048 83.98 85.2688 83.788 84.7168 83.788C84.1728 83.788 83.7368 83.98 83.4088 84.364C83.0808 84.748 82.9168 85.304 82.9168 86.032C82.9168 86.752 83.0808 87.308 83.4088 87.7C83.7368 88.084 84.1728 88.276 84.7168 88.276Z" fill="rgb(106,114,131)" fill-rule="nonzero" />
		</g>
	</g>
</svg>
