<?xml version="1.0" encoding="UTF-8"?>
<svg version="1.1" xmlns="http://www.w3.org/2000/svg" width="500" height="500">
<path d="M0 0 C165 0 330 0 500 0 C500 165 500 330 500 500 C335 500 170 500 0 500 C0 335 0 170 0 0 Z " fill="#6E5084" transform="translate(0,0)"/>
<path d="M0 0 C13.64017977 -0.04658019 27.28034026 -0.08199867 40.92058372 -0.10362434 C47.25600391 -0.11400966 53.5913692 -0.12807163 59.92675781 -0.15087891 C66.0540889 -0.1727962 72.18136759 -0.18460799 78.30873489 -0.18975449 C80.63279672 -0.19341664 82.95685605 -0.2005666 85.28089523 -0.21146011 C140.93555861 -0.46167862 140.93555861 -0.46167862 160 17 C160.68578125 17.59554687 161.3715625 18.19109375 162.078125 18.8046875 C170.12239555 26.22329256 174.51839967 35.49219487 175.21875 46.41015625 C175.61185496 62.5110804 171.68919703 75.81381674 160.51953125 87.61328125 C148.41025011 99.0842437 132.5384605 106.6663522 116 109 C117.26972656 109.09796875 118.53945313 109.1959375 119.84765625 109.296875 C146.31814969 111.51889788 171.2614515 119.36526005 190 139 C195.3129153 145.33462978 199.06799263 152.28871321 202 160 C202.48146484 161.26457031 202.48146484 161.26457031 202.97265625 162.5546875 C208.90823041 181.60373946 205.14350261 201.89434275 196.6875 219.4375 C193.44169415 225.57707202 189.64065369 230.84785141 185 236 C184.47019531 236.61101562 183.94039062 237.22203125 183.39453125 237.8515625 C162.0364215 260.94996267 126.53452996 269.12241931 96.36865234 270.86816406 C84.59043227 271.32911774 72.7835399 271.14448785 61 271 C61 269.02 61 267.04 61 265 C62.37998169 264.97812622 62.37998169 264.97812622 63.7878418 264.95581055 C106.38451928 264.51651337 106.38451928 264.51651337 145 248 C145.97646484 247.34644531 145.97646484 247.34644531 146.97265625 246.6796875 C159.87098263 236.86638224 166.11761546 219.76615659 168.4921875 204.36328125 C171.18035605 183.60359088 168.39551828 160.06461981 155.4375 142.9375 C154.31273759 141.60689871 153.16936494 140.29157885 152 139 C151.21625 138.13375 150.4325 137.2675 149.625 136.375 C142.00832543 129.48372301 134.50108381 124.97494323 125 121 C123.9171875 120.52046875 123.9171875 120.52046875 122.8125 120.03125 C108.35881 114.00887917 91.09183993 114.87896254 75.6875 114.4375 C74.25324685 114.39415585 72.81900196 114.35053749 71.38476562 114.30664062 C67.92326614 114.20127943 64.46167116 114.09958188 61 114 C61 112.02 61 110.04 61 108 C62.01723145 107.9906543 63.03446289 107.98130859 64.08251953 107.97167969 C67.92603323 107.93122828 71.76879182 107.86533046 75.61181641 107.79248047 C77.26210692 107.76458553 78.91252323 107.74321781 80.56298828 107.72900391 C96.94486155 107.57962512 112.92749052 105.2872201 125.75 94 C134.45430819 84.603542 138.3892047 71.72064221 138.25 59.1875 C138.24178223 58.29675781 138.23356445 57.40601563 138.22509766 56.48828125 C138.0079506 43.74898723 135.34235447 32.34608804 126.375 22.6875 C113.71159737 11.10746832 98.28497201 6.97660571 81.5703125 6.68359375 C80.57998016 6.66281265 79.58964783 6.64203156 78.56930542 6.62062073 C75.42127082 6.5554968 72.27315633 6.49641371 69.125 6.4375 C66.9843669 6.39427941 64.84374174 6.35066401 62.703125 6.30664062 C57.46883052 6.19911442 52.23447114 6.09976486 47 6 C47 15.9 47 25.8 47 36 C36.44 36 25.88 36 15 36 C13.75 26.375 13.75 26.375 13.38574219 23.37646484 C12.43996981 16.63477037 10.5009275 11.400742 5 7 C2.40084462 5.80972016 2.40084462 5.80972016 0 5 C0 3.35 0 1.7 0 0 Z " fill="#FCFCFD" transform="translate(154,99)"/>
<path d="M0 0 C3.72103178 2.035547 6.34413863 4.17973576 9.125 7.375 C10.11886719 8.50035156 10.11886719 8.50035156 11.1328125 9.6484375 C12.99782027 11.99725482 14.51843635 14.39576079 16 17 C16.28875 16.195625 16.5775 15.39125 16.875 14.5625 C18 12 18 12 20 11 C25.15285342 10.2809972 27.68790408 11.75598095 31.6796875 14.7109375 C32.11539063 15.13632812 32.55109375 15.56171875 33 16 C33 16.66 33 17.32 33 18 C33.66 18 34.32 18 35 18 C42.14506923 27.00093137 47.45227544 36.23240345 47.43359375 47.87109375 C46.89989395 50.49151168 46.11562394 51.40074873 44 53 C40.1505491 53.68434683 38.43020369 53.25629156 35.0625 51.25 C31.24152575 47.79006269 29.07984335 43.15434966 26.7109375 38.64453125 C24.93044533 35.89249198 23.97662477 35.15620962 21 34 C19.9805881 33.01979625 18.97753644 32.02196992 18 31 C17.34 30.67 16.68 30.34 16 30 C16.33 29.34 16.66 28.68 17 28 C16.44828125 27.76539063 15.8965625 27.53078125 15.328125 27.2890625 C12.40674236 25.67151842 10.20425503 23.63549805 7.75 21.375 C6.85796875 20.55773437 5.9659375 19.74046875 5.046875 18.8984375 C4.37140625 18.27195312 3.6959375 17.64546875 3 17 C6.77910478 17 7.46106101 17.99703962 10.1875 20.5 C10.90292969 21.1496875 11.61835938 21.799375 12.35546875 22.46875 C12.89816406 22.9740625 13.44085938 23.479375 14 24 C13.195625 22.96875 12.39125 21.9375 11.5625 20.875 C8.57906879 16.88752944 5.79249242 12.78809155 3.0625 8.625 C2.6487915 8.00608887 2.23508301 7.38717773 1.80883789 6.74951172 C0.80872471 5.20587264 -0.10407029 3.60634926 -1 2 C-0.67 1.34 -0.34 0.68 0 0 Z " fill="#795D8D" transform="translate(149,353)"/>
<path d="M0 0 C3.72103178 2.035547 6.34413863 4.17973576 9.125 7.375 C10.11886719 8.50035156 10.11886719 8.50035156 11.1328125 9.6484375 C12.99782027 11.99725482 14.51843635 14.39576079 16 17 C16.66 15.35 17.32 13.7 18 12 C18.66 12.33 19.32 12.66 20 13 C20.7109375 15.37109375 20.7109375 15.37109375 21.375 18.4375 C24.22490801 30.08495014 27.37355432 36.0682879 36.515625 43.75 C37.33546875 44.4925 38.1553125 45.235 39 46 C39 46.66 39 47.32 39 48 C37.68 47.67 36.36 47.34 35 47 C36.12109566 48.62493901 36.12109566 48.62493901 38 50 C41.08391002 50.33361919 41.08391002 50.33361919 44 50 C45.33954055 48.881 45.33954055 48.881 45.1875 46 C45.14100631 41.52730709 44.09624245 37.31645464 43 33 C47.28388776 37.28388776 47.24940725 41.93153605 47.36328125 47.6953125 C46.92474505 50.47742391 46.24072503 51.34059514 44 53 C40.1505491 53.68434683 38.43020369 53.25629156 35.0625 51.25 C31.24152575 47.79006269 29.07984335 43.15434966 26.7109375 38.64453125 C24.93044533 35.89249198 23.97662477 35.15620962 21 34 C19.9805881 33.01979625 18.97753644 32.02196992 18 31 C17.34 30.67 16.68 30.34 16 30 C16.33 29.34 16.66 28.68 17 28 C16.44828125 27.76539063 15.8965625 27.53078125 15.328125 27.2890625 C12.40674236 25.67151842 10.20425503 23.63549805 7.75 21.375 C6.85796875 20.55773437 5.9659375 19.74046875 5.046875 18.8984375 C4.37140625 18.27195312 3.6959375 17.64546875 3 17 C6.77910478 17 7.46106101 17.99703962 10.1875 20.5 C10.90292969 21.1496875 11.61835938 21.799375 12.35546875 22.46875 C12.89816406 22.9740625 13.44085938 23.479375 14 24 C13.195625 22.96875 12.39125 21.9375 11.5625 20.875 C8.57906879 16.88752944 5.79249242 12.78809155 3.0625 8.625 C2.6487915 8.00608887 2.23508301 7.38717773 1.80883789 6.74951172 C0.80872471 5.20587264 -0.10407029 3.60634926 -1 2 C-0.67 1.34 -0.34 0.68 0 0 Z " fill="#DED7E3" transform="translate(149,353)"/>
<path d="M0 0 C0.33 0 0.66 0 1 0 C1.2475 0.845625 1.495 1.69125 1.75 2.5625 C3.13973627 6.38427474 4.91120838 9.51868063 7 13 C6.01 13.495 6.01 13.495 5 14 C5.33 14.53625 5.66 15.0725 6 15.625 C7.23690753 18.56265539 7.13461189 20.83662059 7 24 C7 26.48764922 7.20577133 28.6775704 7.5625 31.125 C7.706875 32.40375 7.85125 33.6825 8 35 C7.67 35.33 7.34 35.66 7 36 C6.95936168 37.66617115 6.957279 39.33388095 7 41 C5.35 41.66 3.7 42.32 2 43 C2.44472656 43.47050781 2.88945312 43.94101563 3.34765625 44.42578125 C3.91355469 45.04839844 4.47945312 45.67101562 5.0625 46.3125 C5.63097656 46.92738281 6.19945312 47.54226562 6.78515625 48.17578125 C7.18605469 48.77777344 7.58695313 49.37976563 8 50 C7.67 50.99 7.34 51.98 7 53 C7.88319294 56.15020361 7.88319294 56.15020361 9 59 C6.53799787 56.75333333 5.01308 54.49139949 3.4375 51.5625 C2.81681641 50.41974609 2.81681641 50.41974609 2.18359375 49.25390625 C1.59771484 48.13822266 1.59771484 48.13822266 1 47 C0.61972656 46.30777344 0.23945313 45.61554688 -0.15234375 44.90234375 C-1 43 -1 43 -1 40 C1.31 40 3.62 40 6 40 C5.81584568 37.05908413 5.81584568 37.05908413 5 34 C3.20072961 32.72510734 3.20072961 32.72510734 1 32 C-0.35113205 31.02418241 -1.68946944 30.02970259 -3 29 C-3.66 29.99 -4.32 30.98 -5 32 C-4.979375 31.05125 -4.95875 30.1025 -4.9375 29.125 C-5.60289052 23.93917862 -9.43178957 20.88578105 -12.96875 17.33203125 C-14.92842562 15.0821729 -15.62594991 13.9055677 -16 11 C-11.68679932 12.75722991 -8.0968916 15.8062168 -6 20 C-5.67 18.02 -5.34 16.04 -5 14 C-4.34 14 -3.68 14 -3 14 C-3 13.34 -3 12.68 -3 12 C-2.01 12 -1.02 12 0 12 C2.03435531 15.72965139 3 17.66905042 3 22 C3.66 22 4.32 22 5 22 C4.30264071 16.42112569 1.56492123 11.74248572 -1.18359375 6.92578125 C-2 5 -2 5 -1.125 2.25 C-0.75375 1.5075 -0.3825 0.765 0 0 Z " fill="#715487" transform="translate(177,203)"/>
<path d="M0 0 C5.01113235 1.4317521 6.94469549 3.98445693 10 8 C10.33 6.35 10.66 4.7 11 3 C11.66 3 12.32 3 13 3 C13 2.34 13 1.68 13 1 C14.875 1.1875 14.875 1.1875 17 2 C18.78284814 5.29826907 19 7.1774751 19 11 C19.99 11 20.98 11 22 11 C21.649375 10.236875 21.29875 9.47375 20.9375 8.6875 C20 6 20 6 21 3 C23.1047116 6.42015636 23.16877959 9.03367953 23 13 C22.7763932 15.9254644 22.7763932 15.9254644 24 18 C24.039992 19.99960012 24.04346799 22.00047242 24 24 C23.34 24 22.68 24 22 24 C21.67 24.66 21.34 25.32 21 26 C20.9175 25.38125 20.835 24.7625 20.75 24.125 C20.20076457 21.84957521 20.20076457 21.84957521 18.125 20.875 C17.42375 20.58625 16.7225 20.2975 16 20 C15.01 19.34 14.02 18.68 13 18 C12.34 18.99 11.68 19.98 11 21 C11 18.36 11 15.72 11 13 C10.34 13 9.68 13 9 13 C7.39365985 11.26608049 5.8624713 9.461909 4.375 7.625 C3.55773437 6.62726563 2.74046875 5.62953125 1.8984375 4.6015625 C0 2 0 2 0 0 Z " fill="#715486" transform="translate(161,299)"/>
<path d="M0 0 C2 2 2 2 2.9375 4.0625 C3.90403542 6.34565884 3.90403542 6.34565884 7 7 C7.43957031 7.90234375 7.87914062 8.8046875 8.33203125 9.734375 C10.26432923 13.51751578 12.46780005 15.50588972 15.6875 18.25 C17.49207221 19.79476998 19.27260503 21.36938608 21 23 C21 23.66 21 24.32 21 25 C19.68 24.67 18.36 24.34 17 24 C18.12109566 25.62493901 18.12109566 25.62493901 20 27 C23.08391002 27.33361919 23.08391002 27.33361919 26 27 C27.33954055 25.881 27.33954055 25.881 27.1875 23 C27.14100631 18.52730709 26.09624245 14.31645464 25 10 C29.28388776 14.28388776 29.24940725 18.93153605 29.36328125 24.6953125 C28.92474505 27.47742391 28.24072503 28.34059514 26 30 C22.1505491 30.68434683 20.43020369 30.25629156 17.0625 28.25 C13.24152575 24.79006269 11.07984335 20.15434966 8.7109375 15.64453125 C6.93044533 12.89249198 5.97662477 12.15620962 3 11 C1.9805881 10.01979625 0.97753644 9.02196992 0 8 C-0.66 7.67 -1.32 7.34 -2 7 C-1.814375 6.38125 -1.62875 5.7625 -1.4375 5.125 C-0.76313824 2.95839822 -0.76313824 2.95839822 -2 1 C-1.34 0.67 -0.68 0.34 0 0 Z " fill="#F0EDF2" transform="translate(167,376)"/>
<path d="M0 0 C5.01113235 1.4317521 6.94469549 3.98445693 10 8 C10.33 6.35 10.66 4.7 11 3 C11.33 3 11.66 3 12 3 C12.00257813 3.64066406 12.00515625 4.28132813 12.0078125 4.94140625 C12.27344253 10.88266465 13.2527346 14.26256451 17.33203125 18.625 C19.12007555 20.09898499 20.89314455 21.04940144 23 22 C22.649375 21.236875 22.29875 20.47375 21.9375 19.6875 C21 17 21 17 22 14 C24.09350689 17.4019487 24.17942163 20.05272412 24 24 C23.34 24 22.68 24 22 24 C21.67 24.66 21.34 25.32 21 26 C20.9175 25.38125 20.835 24.7625 20.75 24.125 C20.20076457 21.84957521 20.20076457 21.84957521 18.125 20.875 C17.42375 20.58625 16.7225 20.2975 16 20 C15.01 19.34 14.02 18.68 13 18 C12.34 18.99 11.68 19.98 11 21 C11 18.36 11 15.72 11 13 C10.34 13 9.68 13 9 13 C7.39365985 11.26608049 5.8624713 9.461909 4.375 7.625 C3.55773437 6.62726563 2.74046875 5.62953125 1.8984375 4.6015625 C0 2 0 2 0 0 Z " fill="#D3CADA" transform="translate(161,299)"/>
<path d="M0 0 C7.56432315 4.15708889 13.45954807 11.14943269 17 19 C16.58984375 21.19921875 16.58984375 21.19921875 16 23 C15.37351563 22.2059375 14.74703125 21.411875 14.1015625 20.59375 C13.28429687 19.5728125 12.46703125 18.551875 11.625 17.5 C10.81289062 16.4790625 10.00078125 15.458125 9.1640625 14.40625 C8.44992188 13.6121875 7.73578125 12.818125 7 12 C6.34 12 5.68 12 5 12 C3.45703125 9.8828125 3.45703125 9.8828125 1.8125 7.125 C0.98685547 5.76761719 0.98685547 5.76761719 0.14453125 4.3828125 C-0.23316406 3.59648437 -0.61085937 2.81015625 -1 2 C-0.67 1.34 -0.34 0.68 0 0 Z " fill="#D4CCDB" transform="translate(149,353)"/>
<path d="M0 0 C0.33 0 0.66 0 1 0 C1.2475 0.845625 1.495 1.69125 1.75 2.5625 C3.13973627 6.38427474 4.91120838 9.51868063 7 13 C6.01 13.495 6.01 13.495 5 14 C5.33 14.53625 5.66 15.0725 6 15.625 C7.23690753 18.56265539 7.13461189 20.83662059 7 24 C7 24.99 7 25.98 7 27 C6.67 27.99 6.34 28.98 6 30 C5.59007812 29.31292969 5.18015625 28.62585938 4.7578125 27.91796875 C4.21898437 27.01691406 3.68015625 26.11585938 3.125 25.1875 C2.59132812 24.29417969 2.05765625 23.40085938 1.5078125 22.48046875 C0.38116908 20.62705276 -0.79686611 18.80470083 -2 17 C-2.125 14.3125 -2.125 14.3125 -2 12 C-1.34 12 -0.68 12 0 12 C2.03435531 15.72965139 3 17.66905042 3 22 C3.66 22 4.32 22 5 22 C4.30264071 16.42112569 1.56492123 11.74248572 -1.18359375 6.92578125 C-2 5 -2 5 -1.125 2.25 C-0.75375 1.5075 -0.3825 0.765 0 0 Z " fill="#C3B7CC" transform="translate(177,203)"/>
<path d="M0 0 C2.49361571 1.20381448 4.68143083 2.45428722 7 4 C7.66 3.01 8.32 2.02 9 1 C9.042721 2.66611905 9.04063832 4.33382885 9 6 C8.67 6.33 8.34 6.66 8 7 C7.95936168 8.66617115 7.957279 10.33388095 8 12 C6.35 12.66 4.7 13.32 3 14 C3.44472656 14.47050781 3.88945312 14.94101563 4.34765625 15.42578125 C4.91355469 16.04839844 5.47945312 16.67101562 6.0625 17.3125 C6.63097656 17.92738281 7.19945312 18.54226562 7.78515625 19.17578125 C8.18605469 19.77777344 8.58695313 20.37976563 9 21 C8.67 21.99 8.34 22.98 8 24 C8.88319294 27.15020361 8.88319294 27.15020361 10 30 C7.53799787 27.75333333 6.01308 25.49139949 4.4375 22.5625 C4.02371094 21.80066406 3.60992187 21.03882813 3.18359375 20.25390625 C2.79300781 19.51011719 2.40242187 18.76632813 2 18 C1.61972656 17.30777344 1.23945313 16.61554688 0.84765625 15.90234375 C0 14 0 14 0 11 C2.31 11 4.62 11 7 11 C6.81584568 8.05908413 6.81584568 8.05908413 6 5 C4.0998823 3.75825204 4.0998823 3.75825204 2 3 C1.34 2.01 0.68 1.02 0 0 Z " fill="#D5CDDC" transform="translate(176,232)"/>
<path d="M0 0 C0.598125 0.495 1.19625 0.99 1.8125 1.5 C3.97029994 3.28276418 3.97029994 3.28276418 7 3 C7.98248524 7.0527516 8.08159574 10.83861737 8 15 C7.01 15.495 7.01 15.495 6 16 C6.5259375 16.86625 6.5259375 16.86625 7.0625 17.75 C8.14917407 20.35801776 7.93065133 21.39417629 7 24 C6.01 22.02 5.02 20.04 4 18 C3.67 18.66 3.34 19.32 3 20 C0.59185923 16.48812804 -0.36629408 14.27343092 0 10 C0.598125 10.309375 1.19625 10.61875 1.8125 10.9375 C4.08956772 12.10209704 4.08956772 12.10209704 7 13 C6.40361667 11.72549553 5.79752584 10.45553123 5.1875 9.1875 C4.85105469 8.47980469 4.51460937 7.77210938 4.16796875 7.04296875 C3.08586675 4.94242539 3.08586675 4.94242539 1.36328125 3.36328125 C0.91339844 2.91339844 0.46351563 2.46351563 0 2 C0 1.34 0 0.68 0 0 Z " fill="#CDC3D4" transform="translate(176,330)"/>
<path d="M0 0 C4.31320068 1.75722991 7.9031084 4.8062168 10 9 C10.33 7.02 10.66 5.04 11 3 C11.33 3 11.66 3 12 3 C12.07347656 3.99580078 12.07347656 3.99580078 12.1484375 5.01171875 C12.71125812 11.7112236 12.71125812 11.7112236 15 18 C14.34 18 13.68 18 13 18 C12.34 18.99 11.68 19.98 11 21 C11.020625 20.05125 11.04125 19.1025 11.0625 18.125 C10.39710948 12.93917862 6.56821043 9.88578105 3.03125 6.33203125 C1.07157438 4.0821729 0.37405009 2.9055677 0 0 Z " fill="#DBD4E1" transform="translate(161,214)"/>
<path d="M0 0 C4.28388776 4.28388776 4.24940725 8.93153605 4.36328125 14.6953125 C3.92474505 17.47742391 3.24072503 18.34059514 1 20 C-3.13733951 20.73552702 -4.66268139 20.22487907 -8.1875 17.875 C-10.99049789 15.3074245 -12.52931718 12.51329785 -14 9 C-13.01 9 -12.02 9 -11 9 C-10.566875 9.94875 -10.13375 10.8975 -9.6875 11.875 C-8.20697799 15.20041937 -8.20697799 15.20041937 -5 17 C-1.91634129 17.2502157 -1.91634129 17.2502157 1 17 C2.33954055 15.881 2.33954055 15.881 2.1875 13 C2.14100631 8.52730709 1.09624245 4.31645464 0 0 Z " fill="#DCD5E1" transform="translate(192,386)"/>
<path d="M0 0 C0.99 0.66 1.98 1.32 3 2 C2.94070312 2.75925781 2.88140625 3.51851562 2.8203125 4.30078125 C2.72473854 7.28488471 2.72473854 7.28488471 5.5546875 9.60546875 C6.64936487 10.4814757 7.75675749 11.34178112 8.875 12.1875 C9.97694442 13.05550495 11.07852159 13.92397638 12.1796875 14.79296875 C13.11039063 15.52128906 14.04109375 16.24960938 15 17 C15.66 17.66 16.32 18.32 17 19 C13.99174498 18.40964069 12.10392405 17.55575102 9.72265625 15.63671875 C9.12646484 15.16169922 8.53027344 14.68667969 7.91601562 14.19726562 C7.30435547 13.69904297 6.69269531 13.20082031 6.0625 12.6875 C5.45470703 12.20087891 4.84691406 11.71425781 4.22070312 11.21289062 C2.47577124 9.81430984 0.7376579 8.40759998 -1 7 C-2.66601891 5.66585737 -4.3324076 4.33217534 -6 3 C-5.67 2.34 -5.34 1.68 -5 1 C-1.73045798 1.56371414 -0.17424117 2.49962266 2 5 C1.34 3.35 0.68 1.7 0 0 Z " fill="#DBD3E0" transform="translate(183,198)"/>
<path d="M0 0 C0.33 0.99 0.66 1.98 1 3 C1.99 3.33 2.98 3.66 4 4 C4.33 5.98 4.66 7.96 5 10 C4.01 10 3.02 10 2 10 C2.33 12.31 2.66 14.62 3 17 C1.0625 16.625 1.0625 16.625 -1 16 C-1.33 15.34 -1.66 14.68 -2 14 C-1.01 14 -0.02 14 1 14 C-0.32 11.03 -1.64 8.06 -3 5 C-2.01 5 -1.02 5 0 5 C0 3.35 0 1.7 0 0 Z " fill="#A896B5" transform="translate(181,165)"/>
<path d="M0 0 C0.66 0 1.32 0 2 0 C2.25394531 0.65226563 2.50789062 1.30453125 2.76953125 1.9765625 C4.32032501 5.91453317 5.8641589 9.73768614 7.8125 13.5 C8.204375 14.325 8.59625 15.15 9 16 C8.67 16.66 8.34 17.32 8 18 C6.02 14.37 4.04 10.74 2 7 C1.01 8.32 0.02 9.64 -1 11 C-2.9375 10.3125 -2.9375 10.3125 -5 9 C-5.75 6.375 -5.75 6.375 -6 4 C-4.5 5.375 -4.5 5.375 -3 7 C-3 7.66 -3 8.32 -3 9 C-2.34 9 -1.68 9 -1 9 C-0.67 6.03 -0.34 3.06 0 0 Z " fill="#D6CEDC" transform="translate(161,255)"/>
<path d="M0 0 C0.66 0.33 1.32 0.66 2 1 C2.81640625 3.58203125 2.81640625 3.58203125 3.5625 6.8125 C3.81128906 7.87082031 4.06007812 8.92914063 4.31640625 10.01953125 C4.54199219 11.00308594 4.76757812 11.98664063 5 13 C5.32973547 14.33422764 5.66135727 15.66800526 6 17 C5.01 17 4.02 17 3 17 C0.1247439 12.12456575 -0.95510184 7.6122694 -1 2 C-0.67 1.34 -0.34 0.68 0 0 Z " fill="#AF9FBB" transform="translate(167,365)"/>
<path d="M0 0 C4.56383571 3.51216922 7.7282557 7.01210946 10.875 11.8125 C11.2771875 12.40998047 11.679375 13.00746094 12.09375 13.62304688 C13.07056653 15.07664291 14.03646423 16.53756682 15 18 C14.67 18.66 14.34 19.32 14 20 C0 3.1328976 0 3.1328976 0 0 Z " fill="#785C8C" transform="translate(151,356)"/>
<path d="M0 0 C3 1 3 1 4.1875 3.3125 C5 6 5 6 5 10 C5.99 10 6.98 10 8 10 C7.649375 9.236875 7.29875 8.47375 6.9375 7.6875 C6 5 6 5 7 2 C9.09350689 5.4019487 9.17942163 8.05272412 9 12 C8.01 12.33 7.02 12.66 6 13 C6 12.34 6 11.68 6 11 C5.34 11 4.68 11 4 11 C1.63496961 8.00893216 0.08446819 5.97138418 -0.25 2.125 C-0.1675 1.42375 -0.085 0.7225 0 0 Z " fill="#CABFD2" transform="translate(175,300)"/>
<path d="M0 0 C3 1 3 1 4.1875 3.3125 C5 6 5 6 5 10 C5.99 10 6.98 10 8 10 C7.649375 9.236875 7.29875 8.47375 6.9375 7.6875 C6 5 6 5 7 2 C9.09350689 5.4019487 9.17942163 8.05272412 9 12 C6.75 11.875 6.75 11.875 4 11 C1.48394867 8.00793896 0.09148031 6.05202351 -0.25 2.125 C-0.1675 1.42375 -0.085 0.7225 0 0 Z " fill="#CABFD2" transform="translate(175,353)"/>
<path d="M0 0 C3.25 0.125 3.25 0.125 7 1 C11 5.82051282 11 5.82051282 11 9 C8 8 8 8 6 6 C5.154375 5.71125 4.30875 5.4225 3.4375 5.125 C1 4 1 4 0.1875 1.875 C0.125625 1.25625 0.06375 0.6375 0 0 Z " fill="#9E8AAD" transform="translate(174,194)"/>
<path d="M0 0 C3.52087664 3.05142642 4.63153675 5.60136813 6 10 C6.66 10.33 7.32 10.66 8 11 C7.67 9.02 7.34 7.04 7 5 C7.66 5.33 8.32 5.66 9 6 C9 7.98 9 9.96 9 12 C7.35 12.33 5.7 12.66 4 13 C-0.59225513 4.738041 -0.59225513 4.738041 0 0 Z " fill="#CCC1D3" transform="translate(175,149)"/>
<path d="M0 0 C4.87626457 1.39321845 7.07577973 3.93858296 10 8 C10.8125 10.375 10.8125 10.375 11 12 C10.01 12.495 10.01 12.495 9 13 C7.4941255 11.21326795 5.9954515 9.42046492 4.5 7.625 C3.6646875 6.62726563 2.829375 5.62953125 1.96875 4.6015625 C0 2 0 2 0 0 Z " fill="#C7BCD0" transform="translate(161,299)"/>
<path d="M0 0 C0.33 0 0.66 0 1 0 C1.2475 0.86625 1.495 1.7325 1.75 2.625 C3.07074054 6.19099945 4.81713829 8.90174466 7 12 C7.33 12.66 7.66 13.32 8 14 C2.70841026 12.59928507 0.22521956 9.14512755 -3 5 C-2.34 4.67 -1.68 4.34 -1 4 C-0.34786708 1.97536745 -0.34786708 1.97536745 0 0 Z " fill="#DBD4E0" transform="translate(177,181)"/>
<path d="M0 0 C3.82792868 1.5595265 6.36359864 3.83631836 9 7 C8.8125 9.3125 8.8125 9.3125 8 11 C2.19794344 5.35475578 2.19794344 5.35475578 0 2 C0 1.34 0 0.68 0 0 Z " fill="#C7BBCF" transform="translate(161,214)"/>
<path d="M0 0 C0.33 0 0.66 0 1 0 C1.2475 0.845625 1.495 1.69125 1.75 2.5625 C3.13973627 6.38427474 4.91120838 9.51868063 7 13 C3.56404834 11.47291037 0.88087546 9.40072955 -2 7 C-1.34 4.69 -0.68 2.38 0 0 Z " fill="#CCC1D3" transform="translate(177,203)"/>
<path d="M0 0 C2.9707191 1.38234804 5.46949026 3.00153392 8.0625 5 C10.34345464 6.75121278 12.60386777 8.40257851 15 10 C15 10.66 15 11.32 15 12 C10.73466767 11.51253345 8.23528405 8.82074083 5.25 6 C4.74339844 5.5359375 4.23679688 5.071875 3.71484375 4.59375 C2.4514736 3.42232323 1.22247428 2.21404342 0 1 C0 0.67 0 0.34 0 0 Z " fill="#D0C6D7" transform="translate(152,369)"/>
<path d="M0 0 C0.33 0.99 0.66 1.98 1 3 C1.99 3.33 2.98 3.66 4 4 C4.33 5.98 4.66 7.96 5 10 C4.01 9.67 3.02 9.34 2 9 C2 8.01 2 7.02 2 6 C0.35 6 -1.3 6 -3 6 C-2.01 5.67 -1.02 5.34 0 5 C0 3.35 0 1.7 0 0 Z " fill="#CFC5D6" transform="translate(181,165)"/>
<path d="M0 0 C0.99 0.33 1.98 0.66 3 1 C3.75 3 3.75 3 4 5 C3.67 5.33 3.34 5.66 3 6 C3.08937803 7.52519276 3.24537146 9.04681929 3.4375 10.5625 C3.53933594 11.38878906 3.64117187 12.21507812 3.74609375 13.06640625 C3.82988281 13.70449219 3.91367188 14.34257812 4 15 C1.27893306 12.27893306 1.39344428 10.15223689 0.875 6.375 C0.70742187 5.18648437 0.53984375 3.99796875 0.3671875 2.7734375 C0.24601563 1.85820312 0.12484375 0.94296875 0 0 Z " fill="#D6CEDC" transform="translate(151,244)"/>
<path d="M0 0 C3.83663072 1.34929464 6.65172569 3.07751025 9.8125 5.625 C10.99779297 6.57246094 10.99779297 6.57246094 12.20703125 7.5390625 C12.79871094 8.02117187 13.39039063 8.50328125 14 9 C13.01 9.33 12.02 9.66 11 10 C8.30078125 8.1640625 8.30078125 8.1640625 5.3125 5.625 C4.31863281 4.79226562 3.32476562 3.95953125 2.30078125 3.1015625 C1.54152344 2.40804687 0.78226563 1.71453125 0 1 C0 0.67 0 0.34 0 0 Z " fill="#E8E3EB" transform="translate(186,207)"/>
<path d="M0 0 C3.465 1.485 3.465 1.485 7 3 C7.33 2.01 7.66 1.02 8 0 C8 1.65 8 3.3 8 5 C7.01 5 6.02 5 5 5 C4.67 5.66 4.34 6.32 4 7 C0 2.25 0 2.25 0 0 Z " fill="#D2C9D9" transform="translate(176,325)"/>
<path d="M0 0 C2.32947183 2.11770166 3.88750845 4.03335588 5 7 C4.67 7.99 4.34 8.98 4 10 C3.01 10 2.02 10 1 10 C1.020625 9.0925 1.04125 8.185 1.0625 7.25 C1.0110245 4.57327412 0.7784983 2.53011948 0 0 Z " fill="#947EA4" transform="translate(178,344)"/>
<path d="M0 0 C2.475 0.495 2.475 0.495 5 1 C4.67 1.99 4.34 2.98 4 4 C4.88319294 7.15020361 4.88319294 7.15020361 6 10 C3.38275905 7.63202009 1.67138271 5.10399646 0 2 C0 1.34 0 0.68 0 0 Z " fill="#AA98B7" transform="translate(180,252)"/>
<path d="M0 0 C2.97 1.98 2.97 1.98 6 4 C5.67 4.99 5.34 5.98 5 7 C3.02 6.01 1.04 5.02 -1 4 C-0.67 2.68 -0.34 1.36 0 0 Z " fill="#836996" transform="translate(177,190)"/>
<path d="M0 0 C0.33 2.64 0.66 5.28 1 8 C0.01 7.67 -0.98 7.34 -2 7 C-2.33 5.02 -2.66 3.04 -3 1 C-1 0 -1 0 0 0 Z " fill="#7B608F" transform="translate(182,152)"/>
<path d="M0 0 C0.33 0 0.66 0 1 0 C1.66 2.31 2.32 4.62 3 7 C2.01 7.495 2.01 7.495 1 8 C-1.125 7.0625 -1.125 7.0625 -3 6 C-2.34 5.34 -1.68 4.68 -1 4 C-0.3574765 1.93125966 -0.3574765 1.93125966 0 0 Z " fill="#B8AAC3" transform="translate(177,181)"/>
<path d="M0 0 C1.98 0 3.96 0 6 0 C4.4198632 2.15473199 2.89353366 4.10646634 1 6 C0.4465236 3.92446352 0 2.15634036 0 0 Z " fill="#C4B8CD" transform="translate(176,243)"/>
</svg>
